<?xml version="1.0" standalone="no"?><!DOCTYPE svg PUBLIC "-//W3C//DTD SVG 1.1//EN" "http://www.w3.org/Graphics/SVG/1.1/DTD/svg11.dtd"><svg width="100%" height="100%" viewBox="0 0 27 54" version="1.1" xmlns="http://www.w3.org/2000/svg" xmlns:xlink="http://www.w3.org/1999/xlink" xml:space="preserve" style="fill-rule:evenodd;clip-rule:evenodd;stroke-linejoin:round;stroke-miterlimit:1.41421;"><g><path d="M3.674,24.876c0,0 -0.024,0.604 0.566,0.604c0.734,0 6.811,-0.008 6.811,-0.008l0.01,-5.581c0,0 -0.096,-0.92 0.797,-0.92l2.826,0c1.056,0 0.991,0.92 0.991,0.92l-0.012,5.563c0,0 5.762,0 6.667,0c0.749,0 0.715,-0.752 0.715,-0.752l0,-10.289l-9.396,-8.358l-9.975,8.358l0,10.463Z" style="fill:#303030;fill-rule:nonzero;"/><path d="M0,13.635c0,0 0.847,1.561 2.694,0l11.038,-9.338l10.349,9.28c2.138,1.542 2.939,0 2.939,0l-13.288,-12.037l-13.732,12.095Z" style="fill:#303030;fill-rule:nonzero;"/><path d="M23.83,4.275l-2.662,0l0.011,3.228l2.651,2.249l0,-5.477Z" style="fill:#303030;fill-rule:nonzero;"/><path d="M3.674,51.876c0,0 -0.024,0.604 0.566,0.604c0.734,0 6.811,-0.008 6.811,-0.008l0.01,-5.581c0,0 -0.096,-0.92 0.797,-0.92l2.826,0c1.056,0 0.991,0.92 0.991,0.92l-0.012,5.563c0,0 5.762,0 6.667,0c0.749,0 0.715,-0.752 0.715,-0.752l0,-10.289l-9.396,-8.358l-9.975,8.358l0,10.463Z" style="fill:#fff;fill-rule:nonzero;"/><path d="M0,40.635c0,0 0.847,1.561 2.694,0l11.038,-9.338l10.349,9.28c2.138,1.542 2.939,0 2.939,0l-13.288,-12.037l-13.732,12.095Z" style="fill:#fff;fill-rule:nonzero;"/><path d="M23.83,31.275l-2.662,0l0.011,3.228l2.651,2.249l0,-5.477l0,0Z" style="fill:#fff;fill-rule:nonzero;"/></g></svg>