<?xml version="1.0" standalone="no"?><!DOCTYPE svg PUBLIC "-//W3C//DTD SVG 1.1//EN" "http://www.w3.org/Graphics/SVG/1.1/DTD/svg11.dtd"><svg width="100%" height="100%" viewBox="0 0 510 1020" version="1.1" xmlns="http://www.w3.org/2000/svg" xmlns:xlink="http://www.w3.org/1999/xlink" xml:space="preserve" style="fill-rule:evenodd;clip-rule:evenodd;stroke-linejoin:round;stroke-miterlimit:1.41421;"><path id="post-linkedin" d="M459,0l-408,0c-28.05,0 -51,22.95 -51,51l0,408c0,28.05 22.95,51 51,51l408,0c28.05,0 51,-22.95 51,-51l0,-408c0,-28.05 -22.95,-51 -51,-51ZM153,433.5l-76.5,0l0,-229.5l76.5,0l0,229.5ZM114.75,160.65c-25.5,0 -45.9,-20.4 -45.9,-45.9c0,-25.5 20.4,-45.9 45.9,-45.9c25.5,0 45.9,20.4 45.9,45.9c0,25.5 -20.4,45.9 -45.9,45.9ZM433.5,433.5l-76.5,0l0,-135.15c0,-20.399 -17.85,-38.25 -38.25,-38.25c-20.4,0 -38.25,17.851 -38.25,38.25l0,135.15l-76.5,0l0,-229.5l76.5,0l0,30.6c12.75,-20.4 40.8,-35.7 63.75,-35.7c48.45,0 89.25,40.8 89.25,89.25l0,145.35Z" style="fill:#2f2f2f;fill-rule:nonzero;"/><path id="post-linkedin1" d="M459,510l-408,0c-28.05,0 -51,22.95 -51,51l0,408c0,28.05 22.95,51 51,51l408,0c28.05,0 51,-22.95 51,-51l0,-408c0,-28.05 -22.95,-51 -51,-51ZM153,943.5l-76.5,0l0,-229.5l76.5,0l0,229.5ZM114.75,670.65c-25.5,0 -45.9,-20.4 -45.9,-45.9c0,-25.5 20.4,-45.9 45.9,-45.9c25.5,0 45.9,20.4 45.9,45.9c0,25.5 -20.4,45.9 -45.9,45.9ZM433.5,943.5l-76.5,0l0,-135.15c0,-20.399 -17.85,-38.25 -38.25,-38.25c-20.4,0 -38.25,17.851 -38.25,38.25l0,135.15l-76.5,0l0,-229.5l76.5,0l0,30.6c12.75,-20.4 40.8,-35.7 63.75,-35.7c48.45,0 89.25,40.8 89.25,89.25l0,145.35Z" style="fill:#fff;fill-rule:nonzero;"/></svg>